<svg xmlns="http://www.w3.org/2000/svg" width="316.228" height="316.228" fill="none" viewBox="0 0 73 73"><g clip-path="url(#a)"><g clip-path="url(#b)"><path fill="url(#c)" d="M53.157 10.315a7.5 7.5 0 0 0-7.15-5.237h-2.472a7.5 7.5 0 0 0-7.373 6.126L32.49 30.918l1.102-3.64a7.5 7.5 0 0 1 7.178-5.325h11.48l6.584 2.303 3.5-2.292a7.51 7.51 0 0 1-7.15-5.248z"/><path fill="url(#d)" d="M20.615 62.808a7.5 7.5 0 0 0 7.16 5.27h4.867a7.5 7.5 0 0 0 7.499-7.394l.257-18.11-.987 3.286a7.5 7.5 0 0 1-7.183 5.343H20.75l-5.936-2.707-3.333 2.707a7.5 7.5 0 0 1 7.16 5.27z"/><path fill="url(#e)" d="M45.5 5.078H19.25c-7.5 0-12 9.672-15 19.344C.696 35.88-3.955 51.206 9.5 51.206h11.431a7.5 7.5 0 0 0 7.204-5.394c1.972-6.732 5.42-18.446 8.128-27.366 1.379-4.54 2.527-8.439 4.29-10.867.987-1.361 2.634-2.501 4.947-2.501"/><path fill="url(#f)" d="M45.5 5.078H19.25c-7.5 0-12 9.672-15 19.344C.696 35.88-3.955 51.206 9.5 51.206h11.431a7.5 7.5 0 0 0 7.204-5.394c1.972-6.732 5.42-18.446 8.128-27.366 1.379-4.54 2.527-8.439 4.29-10.867.987-1.361 2.634-2.501 4.947-2.501"/><path fill="url(#g)" d="M27.495 68.078h26.25c7.5 0 12-9.67 15-19.342 3.554-11.457 8.205-26.78-5.25-26.78H52.063a7.5 7.5 0 0 0-7.204 5.394c-1.972 6.731-5.419 18.443-8.128 27.361-1.378 4.54-2.526 8.438-4.289 10.866-.988 1.36-2.634 2.5-4.947 2.5"/><path fill="url(#h)" d="M27.495 68.078h26.25c7.5 0 12-9.67 15-19.342 3.554-11.457 8.205-26.78-5.25-26.78H52.063a7.5 7.5 0 0 0-7.204 5.394c-1.972 6.731-5.419 18.443-8.128 27.361-1.378 4.54-2.526 8.438-4.289 10.866-.988 1.36-2.634 2.5-4.947 2.5"/><rect width="48.375" height="21.375" x="24.125" y="51.203" fill="#000" rx="3.637"/><path fill="#fff" fill-rule="evenodd" d="M27.068 55.288v13.031h2.411v-9.388l2.643 5.206h1.607l2.585-5.21v9.392h2.489V55.288h-2.78l-3.018 6.046-3.003-6.046zm18.013 13.196q-2.15 0-3.35-1.026-1.19-1.027-1.19-3.089h2.381q0 .978.562 1.53.57.552 1.588.552.91 0 1.394-.465.493-.465.493-1.472 0-.968-.6-1.403-.59-.446-1.54-.446h-.783V60.71h.852q.852 0 1.355-.464.504-.465.503-1.23 0-.774-.455-1.142-.444-.369-1.23-.368-.861 0-1.335.484-.474.474-.475 1.307H40.88q0-1.307.543-2.15a3.37 3.37 0 0 1 1.5-1.258q.95-.426 2.13-.426 1.094 0 2.024.358a3.34 3.34 0 0 1 1.49 1.094q.572.736.572 1.888 0 1.171-.562 1.859-.552.687-1.49.968 1.035.213 1.713.968.687.746.687 2.101 0 1.84-1.19 2.818-1.182.968-3.215.968m7.794-.64q1.075.65 2.44.65 1.374 0 2.323-.543a3.6 3.6 0 0 0 1.453-1.49q.493-.96.493-2.198 0-1.289-.484-2.16a3.2 3.2 0 0 0-1.316-1.326q-.823-.455-1.86-.455-.87 0-1.529.28a4.1 4.1 0 0 0-1.278.867q.066-1.875.562-2.841.58-1.123 1.645-1.123.66 0 1.065.368.417.358.562 1.094h2.382q-.252-1.685-1.278-2.585-1.027-.91-2.73-.91-1.385 0-2.46.706-1.074.697-1.684 2.16-.61 1.452-.61 3.727 0 2.285.62 3.708.618 1.413 1.684 2.072m.25-4.514q.258-.251.573-.462a3.1 3.1 0 0 1 1.772-.532q.745 0 1.162.523.416.513.416 1.433 0 .939-.436 1.558-.426.62-1.297.62a1.85 1.85 0 0 1-1.075-.358q-.504-.368-.823-1.191-.235-.633-.292-1.591m9.78 4.738q1.017.425 2.266.425 1.239 0 2.227-.493.996-.495 1.578-1.472.58-.987.58-2.469 0-1.48-.551-2.391-.543-.91-1.423-1.326a4.3 4.3 0 0 0-1.888-.426q-.775 0-1.346.251-.561.242-.852.572l.232-2.982h4.85v-2.12h-6.854l-.552 7.019h2.217q.271-.34.688-.562t1.016-.223q.852 0 1.385.523.542.513.542 1.665 0 1.25-.513 1.83-.504.58-1.336.581-.881 0-1.443-.494-.561-.503-.561-1.374h-2.47q0 1.306.591 2.178.6.861 1.617 1.288" clip-rule="evenodd"/></g></g><defs><radialGradient id="c" cx="0" cy="0" r="1" gradientTransform="rotate(229.715 36.92 1.775)scale(27.6431 26.1575)" gradientUnits="userSpaceOnUse"><stop offset=".096" stop-color="#00aeff"/><stop offset=".773" stop-color="#2253ce"/><stop offset="1" stop-color="#0736c4"/></radialGradient><radialGradient id="d" cx="0" cy="0" r="1" gradientTransform="rotate(50.256 -46.657 41.861)scale(25.0142 24.5538)" gradientUnits="userSpaceOnUse"><stop offset="0" stop-color="#ffb657"/><stop offset=".634" stop-color="#ff5f3d"/><stop offset=".923" stop-color="#c02b3c"/></radialGradient><radialGradient id="g" cx="0" cy="0" r="1" gradientTransform="rotate(109.722 26.284 31.54)scale(61.4524 75.0539)" gradientUnits="userSpaceOnUse"><stop offset=".066" stop-color="#8c48ff"/><stop offset=".5" stop-color="#f2598a"/><stop offset=".896" stop-color="#ffb152"/></radialGradient><linearGradient id="e" x1="17.679" x2="21.246" y1="10.667" y2="52.961" gradientUnits="userSpaceOnUse"><stop offset=".156" stop-color="#0d91e1"/><stop offset=".487" stop-color="#52b471"/><stop offset=".652" stop-color="#98bd42"/><stop offset=".937" stop-color="#ffc800"/></linearGradient><linearGradient id="f" x1="20.952" x2="22.899" y1="5.078" y2="51.21" gradientUnits="userSpaceOnUse"><stop offset="0" stop-color="#3dcbff"/><stop offset=".247" stop-color="#0588f7" stop-opacity="0"/></linearGradient><linearGradient id="h" x1="66.917" x2="66.891" y1="19.141" y2="31.703" gradientUnits="userSpaceOnUse"><stop offset=".058" stop-color="#f8adfa"/><stop offset=".708" stop-color="#a86edd" stop-opacity="0"/></linearGradient><clipPath id="a"><path fill="#fff" d="M.5.578h72v72H.5z"/></clipPath><clipPath id="b"><path fill="#fff" d="M.5.578h72v72H.5z"/></clipPath></defs></svg>