<svg xmlns="http://www.w3.org/2000/svg" xml:space="preserve" viewBox="0 0 140 140"><path d="M70 11.61A58.39 58.39 0 1 0 128.39 70 58.45 58.45 0 0 0 70 11.61" style="fill:#111;fill-opacity:1"/><path d="M70 140a70 70 0 1 1 70-70 70 70 0 0 1-70 70m0-128.39A58.39 58.39 0 1 0 128.39 70 58.45 58.45 0 0 0 70 11.61" style="fill:#8bd3f1;fill-opacity:1"/><path d="M67.12 74.1c-11.54-2.74-25.67-5.91-25.67-20.8C41.46 40.23 52.52 32 69.1 32c13.67 0 28.24 6.53 30.68 23.4l-13.06 1.69c-.15-4.42-.47-7.9-5.17-11.57s-10.17-4.24-13.8-4.24c-9.44 0-14.13 5.62-14.13 10.48 0 6.84 7.74 9 17.14 11.24l6.85 1.67c8.5 2 23.84 5.63 23.84 20.66C101.44 97 91.12 108 71.37 108c-8.06 0-16.4-1.67-22.17-5.76-2.29-1.68-9.27-7.45-10.64-19.44l13.67-2.13c-.15 3.19-.15 9.27 5.31 14 4.25 3.65 9.58 4.12 14.45 4.12 10.62 0 16.83-4.12 16.83-11.86 0-8.2-6.21-9.71-14.88-11.38Z" style="fill:#fff;fill-opacity:1"/></svg>