<?xml version="1.0" encoding="UTF-8"?><svg id="a" xmlns="http://www.w3.org/2000/svg" viewBox="0 0 90.3183594 79.2978516"><path d="M27.465332,32.6845703c-.2792969,1.4433594-1.6757812,6.2851562-2.1416016,7.7285156H3.6757812v-1.3046875c4.2368164-.4179688,4.6088867-.6503906,4.6088867-4.6083984v-18.4819336c0-3.9570312-.465332-4.1899414-4.1899414-4.5625v-1.3032227h12.4770508v1.3032227c-3.7246094.3725586-4.2368164.5585938-4.2368164,4.5625v18.9477539c0,2.8398438.3725586,3.4921875,3.0263672,3.5380859.0463867,0,3.3984375.0458984,3.6777344.0458984,2.3740234,0,3.0722656-.2792969,4.1430664-1.4423828,1.1640625-1.2104492,2.1416016-3.0727539,2.8398438-4.7954102l1.4433594.3725586Z" style="fill:#000; stroke:#000; stroke-miterlimit:10; stroke-width:4px;"/><path d="M62.9433594,11.4555664c-3.8642578.3725586-4.2363281.6054688-4.2363281,4.5161133v18.6679688c0,3.9101562.4189453,4.0507812,4.2363281,4.46875v1.3046875h-12.4765625v-1.3046875c3.8632812-.4648438,4.2363281-.5585938,4.2363281-4.46875v-9.3105469h-15.921875v9.3105469c0,3.8642578.3725586,4.0039062,4.1899414,4.46875v1.3046875h-12.4301758v-1.3046875c3.7709961-.4179688,4.1899414-.5585938,4.1899414-4.46875V15.9716797c0-3.9106445-.4189453-4.1435547-4.1899414-4.5161133v-1.3032227h12.4301758v1.3032227c-3.7241211.3261719-4.1899414.6518555-4.1899414,4.5161133v7.4018555h15.921875v-7.4018555c0-3.8642578-.5117188-4.1899414-4.2363281-4.5161133v-1.3032227h12.4765625v1.3032227Z" style="fill:#000; stroke:#000; stroke-miterlimit:10; stroke-width:4px;"/><path d="M82.9658203,17.2285156c-.7910156-3.0727539-2.0947266-6.0986328-6.4707031-6.0986328-3.6308594,0-4.8886719,2.6533203-4.8886719,5.0742188,0,3.2124023,2.0488281,4.8417969,5.9130859,6.84375,5.5859375,2.8862305,8.0068359,5.027832,8.0068359,9.4506836,0,4.8881836-4.2363281,8.6118164-10.2412109,8.6118164-2.7939453,0-5.2148438-.7910156-7.1230469-1.5351562-.3730469-1.3046875-.9316406-4.4697266-1.2568359-6.9838867l1.4423828-.3725586c.9316406,3.1196289,2.9794922,7.1689453,7.8212891,7.1689453,3.3525391,0,5.4003906-2.3271484,5.4003906-5.3530273,0-3.5849609-1.9082031-5.027832-6.0048828-7.2626953-4.8886719-2.6533203-7.6357422-4.8881836-7.6357422-9.2177734,0-4.1430664,3.4453125-8.0537109,9.5908203-8.0537109,2.6064453,0,5.1669922.6982422,6.1445312.8842773.1865234,1.6762695.3730469,3.5380859.7451172,6.5644531l-1.4433594.2792969Z" style="fill:#000; stroke:#000; stroke-miterlimit:10; stroke-width:4px;"/><path d="M12.6181641,59.6923828h-4.9697266v-1.9960938c0-.6953125-.0566406-1.1679688-.1699219-1.4150391-.112793-.2480469-.3217773-.3720703-.6259766-.3720703-.3046875,0-.5087891.1083984-.6132812.3261719-.1040039.2177734-.15625.7041016-.15625,1.4609375v8.1660156c0,.6171875.078125,1.0800781.2348633,1.3886719.15625.3095703.3867188.4638672.6914062.4638672.3564453,0,.5976562-.1611328.7236328-.4833984.1259766-.3212891.1894531-.9296875.1894531-1.8261719v-2.0605469h4.6958008c-.0087891,1.3828125-.0585938,2.4199219-.1499023,3.1113281-.0913086.6904297-.3828125,1.3994141-.8740234,2.1259766-.4912109.7255859-1.1328125,1.2734375-1.9243164,1.6435547-.7910156.3691406-1.7695312.5546875-2.9345703.5546875-1.4873047,0-2.6655273-.2548828-3.5351562-.7636719s-1.4853516-1.2216797-1.8457031-2.1386719c-.3613281-.9179688-.5415039-2.2197266-.5415039-3.9072266v-4.9179688c0-1.4697266.1479492-2.578125.4433594-3.3261719s.9262695-1.4150391,1.8916016-2.0019531c.965332-.5878906,2.1391602-.8808594,3.5219727-.8808594,1.3740234,0,2.5478516.2910156,3.5219727.8740234s1.6220703,1.3173828,1.9438477,2.2041016c.3212891.8876953.4824219,2.1445312.4824219,3.7705078Z" style="fill:red; stroke-width:0px;"/><path d="M26.105957,59.2353516v4.2392578c0,1.5566406-.078125,2.6982422-.2348633,3.4248047-.15625.7255859-.4912109,1.4042969-1.0043945,2.0341797-.5131836.6308594-1.171875,1.0966797-1.9760742,1.3964844-.8046875.2998047-1.7285156.4501953-2.7719727.4501953-1.1655273,0-2.1523438-.1289062-2.9609375-.3847656-.809082-.2568359-1.4375-.6435547-1.8852539-1.1611328s-.7675781-1.1435547-.9584961-1.8789062c-.1914062-.734375-.2871094-1.8369141-.2871094-3.3066406v-4.4345703c0-1.609375.1738281-2.8662109.5219727-3.7705078.3476562-.9042969.9736328-1.6308594,1.8779297-2.1787109.9047852-.5478516,2.0610352-.8212891,3.4702148-.8212891,1.1826172,0,2.1977539.1757812,3.0458984.5283203.8476562.3525391,1.5019531.8105469,1.9628906,1.3759766s.7763672,1.1484375.9458008,1.7480469.2543945,1.5136719.2543945,2.7392578ZM20.8359375,57.9306641c0-.8867188-.0478516-1.4453125-.1435547-1.6757812s-.2998047-.3457031-.612793-.3457031-.5219727.1152344-.6264648.3457031c-.1040039.2304688-.15625.7890625-.15625,1.6757812v7.8144531c0,.8173828.0522461,1.3496094.15625,1.5976562.1044922.2480469.3085938.3720703.6132812.3720703.3129883,0,.5195312-.1132812.6196289-.3398438.1000977-.2255859.1499023-.7128906.1499023-1.4609375v-7.9833984Z" style="fill:red; stroke-width:0px;"/><path d="M33.2021484,53.1572266l-.0913086,1.59375c.3828125-.6357422.8500977-1.1123047,1.4023438-1.4306641.5522461-.3173828,1.1894531-.4765625,1.9111328-.4765625.9042969,0,1.6435547.2128906,2.2177734.6386719.5737305.4267578.9433594.9638672,1.1083984,1.6113281.1655273.6484375.2480469,1.7285156.2480469,3.2412109v12.1318359h-5.2700195v-11.9882812c0-1.1914062-.0390625-1.9169922-.1171875-2.1777344-.0786133-.2607422-.2958984-.3916016-.6523438-.3916016-.3740234,0-.6088867.1503906-.7045898.4501953s-.1435547,1.1025391-.1435547,2.40625v11.7011719h-5.2700195v-17.3095703h5.3613281Z" style="fill:red; stroke-width:0px;"/><path d="M47.1728516,53.1572266l-.0908203,1.59375c.3828125-.6357422.8496094-1.1123047,1.4023438-1.4306641.5517578-.3173828,1.1894531-.4765625,1.9101562-.4765625.9042969,0,1.6445312.2128906,2.21875.6386719.5732422.4267578.9433594.9638672,1.1074219,1.6113281.1660156.6484375.2480469,1.7285156.2480469,3.2412109v12.1318359h-5.2695312v-11.9882812c0-1.1914062-.0390625-1.9169922-.1171875-2.1777344s-.2958984-.3916016-.6523438-.3916016c-.3740234,0-.609375.1503906-.7050781.4501953s-.1425781,1.1025391-.1425781,2.40625v11.7011719h-5.2705078v-17.3095703h5.3613281Z" style="fill:red; stroke-width:0px;"/><path d="M67.71875,62.1181641h-6.8222656v3.7441406c0,.7822266.0566406,1.2871094.1699219,1.5126953.1113281.2265625.3300781.3398438.6503906.3398438.4003906,0,.6679688-.1503906.8027344-.4501953.1347656-.3007812.203125-.8808594.203125-1.7421875v-2.2822266h4.9960938v1.2783203c0,1.0693359-.0683594,1.8916016-.203125,2.4658203-.1347656.5732422-.4492188,1.1865234-.9453125,1.8388672s-1.125,1.1416016-1.8847656,1.4677734c-.7617188.3261719-1.7148438.4892578-2.8632812.4892578-1.1132812,0-2.0957031-.1611328-2.9482422-.4833984-.8525391-.3212891-1.515625-.7626953-1.9892578-1.3232422-.4746094-.5615234-.8027344-1.1787109-.984375-1.8525391-.1835938-.6738281-.2744141-1.6542969-.2744141-2.9414062v-5.0488281c0-1.5126953.2041016-2.7060547.6132812-3.5800781.4082031-.8740234,1.078125-1.5439453,2.0087891-2.0087891.9296875-.4658203,2-.6982422,3.2089844-.6982422,1.4785156,0,2.6972656.2802734,3.6582031.8408203.9609375.5615234,1.6347656,1.3046875,2.0234375,2.2314453.3867188.9257812.5800781,2.2285156.5800781,3.90625v2.2958984ZM62.4355469,59.3007812v-1.265625c0-.8955078-.0488281-1.4736328-.1445312-1.734375s-.2910156-.3916016-.5859375-.3916016c-.3652344,0-.5917969.1103516-.6796875.3330078-.0859375.2216797-.1289062.8193359-.1289062,1.7929688v1.265625h1.5390625Z" style="fill:red; stroke-width:0px;"/><path d="M81.0888672,59.6923828h-4.9697266v-1.9960938c0-.6953125-.0566406-1.1679688-.1699219-1.4150391-.1132812-.2480469-.3212891-.3720703-.6259766-.3720703s-.5087891.1083984-.6132812.3261719-.15625.7041016-.15625,1.4609375v8.1660156c0,.6171875.078125,1.0800781.234375,1.3886719.1572266.3095703.3867188.4638672.6914062.4638672.3564453,0,.5976562-.1611328.7246094-.4833984.1259766-.3212891.1884766-.9296875.1884766-1.8261719v-2.0605469h4.6962891c-.0087891,1.3828125-.0585938,2.4199219-.1503906,3.1113281-.0908203.6904297-.3828125,1.3994141-.8740234,2.1259766-.4912109.7255859-1.1328125,1.2734375-1.9238281,1.6435547-.7910156.3691406-1.7695312.5546875-2.9345703.5546875-1.4873047,0-2.6660156-.2548828-3.5351562-.7636719-.8701172-.5087891-1.4853516-1.2216797-1.8457031-2.1386719-.3613281-.9179688-.5419922-2.2197266-.5419922-3.9072266v-4.9179688c0-1.4697266.1484375-2.578125.4443359-3.3261719.2949219-.7480469.9257812-1.4150391,1.890625-2.0019531.9658203-.5878906,2.1396484-.8808594,3.5224609-.8808594,1.3740234,0,2.5478516.2910156,3.5224609.8740234.9736328.5830078,1.6210938,1.3173828,1.9433594,2.2041016.3212891.8876953.4824219,2.1445312.4824219,3.7705078Z" style="fill:red; stroke-width:0px;"/><path d="M88.2109375,50.8476562v2.7265625h1.421875v2.7392578h-1.421875v9.2617188c0,1.1396484.0585938,1.7744141.1757812,1.9042969.1181641.1308594.6074219.1953125,1.4677734.1953125v2.7919922h-2.1259766c-1.2001953,0-2.0566406-.0498047-2.5703125-.1503906-.5126953-.0996094-.9648438-.3300781-1.3564453-.6914062-.3916016-.3603516-.6347656-.7734375-.7304688-1.2392578-.0957031-.4648438-.1435547-1.5585938-.1435547-3.2802734v-8.7919922h-1.1347656v-2.7392578h1.1347656v-2.7265625h5.2832031Z" style="fill:red; stroke-width:0px;"/><rect x=".2501665" y="44.6601125" width="90.0681929" height="4.5797386" style="fill:#000; stroke-width:0px;"/></svg>