<svg xmlns="http://www.w3.org/2000/svg" viewBox="0 0 90.318 79.298"><path d="M27.465 32.685c-.279 1.443-1.675 6.285-2.141 7.728H3.676v-1.305c4.237-.418 4.609-.65 4.609-4.608V16.018c0-3.957-.466-4.19-4.19-4.562v-1.304h12.477v1.304c-3.725.372-4.237.558-4.237 4.562v18.948c0 2.84.373 3.492 3.026 3.538.047 0 3.399.046 3.678.046 2.374 0 3.072-.28 4.143-1.443 1.164-1.21 2.142-3.072 2.84-4.795zM62.943 11.456c-3.864.372-4.236.605-4.236 4.516V34.64c0 3.91.419 4.05 4.236 4.468v1.305H50.467v-1.305c3.863-.464 4.236-.558 4.236-4.468v-9.31H38.781v9.31c0 3.864.373 4.004 4.19 4.468v1.305h-12.43v-1.305c3.771-.418 4.19-.558 4.19-4.468V15.972c0-3.911-.419-4.144-4.19-4.516v-1.304h12.43v1.304c-3.724.326-4.19.651-4.19 4.516v7.402h15.922v-7.402c0-3.865-.512-4.19-4.236-4.516v-1.304h12.476zM82.966 17.229c-.791-3.073-2.095-6.1-6.47-6.1-3.632 0-4.89 2.654-4.89 5.075 0 3.213 2.05 4.842 5.914 6.844 5.585 2.886 8.006 5.028 8.006 9.45 0 4.889-4.236 8.612-10.24 8.612-2.795 0-5.216-.79-7.124-1.535-.373-1.304-.932-4.47-1.257-6.984l1.443-.372c.931 3.12 2.98 7.169 7.82 7.169 3.353 0 5.401-2.327 5.401-5.353 0-3.585-1.908-5.028-6.005-7.263-4.888-2.653-7.635-4.888-7.635-9.218 0-4.143 3.445-8.054 9.59-8.054 2.607 0 5.168.699 6.145.885.187 1.676.373 3.538.745 6.564z" style="fill:#000;stroke:#000;stroke-miterlimit:10;stroke-width:4px"/><path d="M12.618 59.692h-4.97v-1.996q0-1.044-.17-1.415-.168-.372-.625-.372-.458 0-.614.326t-.156 1.461v8.166q0 .926.235 1.389.235.465.691.464.535 0 .724-.484.19-.481.19-1.826v-2.06h4.695q-.013 2.074-.15 3.111-.137 1.036-.874 2.126a4.7 4.7 0 0 1-1.924 1.644q-1.187.554-2.935.554-2.23 0-3.535-.763c-1.305-.763-1.485-1.222-1.846-2.14q-.54-1.375-.541-3.906v-4.918q0-2.205.443-3.326c.443-1.121.927-1.415 1.892-2.002q1.448-.882 3.522-.881 2.061-.001 3.522.874c1.46.875 1.622 1.317 1.944 2.204q.482 1.331.482 3.77M26.106 59.235v4.24q0 2.335-.235 3.424-.234 1.09-1.004 2.035a4.53 4.53 0 0 1-1.976 1.396q-1.207.45-2.772.45-1.749 0-2.961-.384-1.215-.385-1.886-1.162c-.67-.777-.767-1.143-.958-1.879q-.287-1.101-.287-3.306v-4.435q0-2.414.522-3.77.52-1.357 1.878-2.179 1.356-.822 3.47-.821 1.774 0 3.046.528t1.963 1.376c.69.848.776 1.148.946 1.748s.254 1.514.254 2.74m-5.27-1.304q0-1.33-.144-1.676c-.144-.346-.3-.346-.612-.346s-.522.115-.627.346q-.156.345-.156 1.676v7.814q0 1.226.156 1.598.157.372.613.372.47 0 .62-.34t.15-1.46zM33.202 53.157l-.091 1.594q.574-.954 1.402-1.43.829-.477 1.911-.477 1.357 0 2.218.638.86.64 1.108 1.612T40 58.335v12.132h-5.27V58.479q0-1.787-.118-2.178-.117-.392-.652-.392-.561 0-.705.45c-.144.45-.143 1.103-.143 2.407v11.7h-5.27V53.158zM47.173 53.157l-.091 1.594q.574-.954 1.402-1.43.829-.477 1.91-.477 1.357 0 2.22.638.86.64 1.107 1.612.248.972.248 3.241v12.132h-5.27V58.479q0-1.787-.117-2.178c-.117-.391-.296-.392-.652-.392q-.562 0-.705.45c-.143.45-.143 1.103-.143 2.407v11.7h-5.27V53.158zM67.719 62.118h-6.823v3.744q0 1.174.17 1.513.169.34.65.34.602 0 .804-.45t.203-1.743V63.24h4.996v1.279q-.001 1.604-.203 2.465t-.946 1.84c-.744.98-1.125 1.14-1.884 1.467q-1.142.49-2.864.49-1.669 0-2.948-.484-1.28-.482-1.99-1.323a4.8 4.8 0 0 1-.984-1.853q-.274-1.01-.274-2.941v-5.05q0-2.268.613-3.58.612-1.31 2.009-2.008 1.395-.699 3.209-.698 2.217 0 3.658.84 1.441.842 2.024 2.232.58 1.39.58 3.906zm-5.283-2.817v-1.266q-.001-1.343-.145-1.734c-.144-.391-.291-.392-.586-.392q-.548 0-.68.333-.129.333-.129 1.793v1.266zM81.089 59.692h-4.97v-1.996q0-1.044-.17-1.415-.169-.372-.626-.372c-.457 0-.509.109-.613.326s-.156.704-.156 1.461v8.166q0 .926.234 1.389.235.465.691.464.535 0 .725-.484.189-.481.189-1.826v-2.06h4.696q-.014 2.074-.15 3.111-.137 1.036-.875 2.126a4.7 4.7 0 0 1-1.923 1.644q-1.187.554-2.935.554-2.231 0-3.535-.763a4.2 4.2 0 0 1-1.846-2.14q-.542-1.375-.542-3.906v-4.918q0-2.205.445-3.326.442-1.122 1.89-2.002 1.449-.882 3.523-.881 2.06-.001 3.522.874 1.46.874 1.943 2.204t.483 3.77M88.21 50.848v2.726h1.423v2.74H88.21v9.261q0 1.71.176 1.904.177.196 1.467.196v2.792H87.73q-1.8 0-2.57-.15t-1.357-.692q-.588-.54-.73-1.24-.144-.697-.144-3.28v-8.792h-1.135v-2.739h1.135v-2.726z" style="fill:red;stroke-width:0"/><path d="M.25 44.66h90.068v4.58H.25z" style="fill:#000;stroke-width:0"/></svg>