<?xml version="1.0" encoding="UTF-8"?><svg id="a" xmlns="http://www.w3.org/2000/svg" viewBox="0 0 118.29 103.27"><g><path d="M35.95,42.2c-.37,1.89-2.2,8.24-2.81,10.13H4.78v-1.71c5.55-.55,6.04-.85,6.04-6.04V20.36c0-5.19-.61-5.49-5.49-5.98v-1.71H21.67v1.71c-4.88,.49-5.55,.73-5.55,5.98v24.83c0,3.72,.49,4.58,3.97,4.64,.06,0,4.45,.06,4.82,.06,3.11,0,4.03-.37,5.43-1.89,1.52-1.59,2.81-4.03,3.72-6.28l1.89,.49Z" style="stroke:#000; stroke-miterlimit:10; stroke-width:4px;"/><path d="M82.43,14.38c-5.06,.49-5.55,.79-5.55,5.92v24.46c0,5.12,.55,5.31,5.55,5.86v1.71h-16.35v-1.71c5.06-.61,5.55-.73,5.55-5.86v-12.2h-20.86v12.2c0,5.06,.49,5.25,5.49,5.86v1.71h-16.29v-1.71c4.94-.55,5.49-.73,5.49-5.86V20.3c0-5.12-.55-5.43-5.49-5.92v-1.71h16.29v1.71c-4.88,.43-5.49,.85-5.49,5.92v9.7h20.86v-9.7c0-5.06-.67-5.49-5.55-5.92v-1.71h16.35v1.71Z" style="stroke:#000; stroke-miterlimit:10; stroke-width:4px;"/><path d="M108.66,21.94c-1.04-4.03-2.75-7.99-8.48-7.99-4.76,0-6.41,3.48-6.41,6.65,0,4.21,2.68,6.34,7.75,8.97,7.32,3.78,10.49,6.59,10.49,12.38,0,6.41-5.55,11.29-13.42,11.29-3.66,0-6.83-1.04-9.33-2.01-.49-1.71-1.22-5.86-1.65-9.15l1.89-.49c1.22,4.09,3.9,9.39,10.25,9.39,4.39,0,7.08-3.05,7.08-7.02,0-4.7-2.5-6.59-7.87-9.52-6.41-3.48-10-6.41-10-12.08s4.51-10.55,12.57-10.55c3.42,0,6.77,.92,8.05,1.16,.24,2.2,.49,4.64,.98,8.6l-1.89,.37Z" style="stroke:#000; stroke-miterlimit:10; stroke-width:4px;"/></g><g><path d="M16.49,77.58h-6.51v-2.61c0-.91-.07-1.53-.22-1.85-.15-.33-.42-.49-.82-.49s-.67,.14-.8,.43-.21,.92-.21,1.91v10.7c0,.81,.1,1.42,.31,1.82,.21,.41,.51,.61,.91,.61,.47,0,.78-.21,.95-.63,.16-.42,.25-1.22,.25-2.39v-2.7h6.15c-.01,1.81-.08,3.17-.2,4.08-.12,.91-.5,1.83-1.14,2.79-.64,.95-1.48,1.67-2.52,2.15-1.04,.48-2.32,.73-3.85,.73-1.95,0-3.49-.33-4.63-1-1.14-.67-1.95-1.6-2.42-2.8-.47-1.2-.71-2.91-.71-5.12v-6.44c0-1.93,.19-3.38,.58-4.36,.39-.98,1.21-1.85,2.48-2.62,1.26-.77,2.8-1.15,4.61-1.15s3.34,.38,4.61,1.14c1.28,.76,2.12,1.73,2.55,2.89,.42,1.16,.63,2.81,.63,4.94Z" style="fill:red;"/><path d="M34.16,76.98v5.55c0,2.04-.1,3.54-.31,4.49s-.64,1.84-1.32,2.67c-.67,.83-1.54,1.44-2.59,1.83-1.05,.39-2.26,.59-3.63,.59-1.53,0-2.82-.17-3.88-.5s-1.88-.84-2.47-1.52c-.59-.68-1.01-1.5-1.26-2.46-.25-.96-.38-2.41-.38-4.33v-5.81c0-2.11,.23-3.75,.68-4.94,.46-1.18,1.28-2.14,2.46-2.85,1.18-.72,2.7-1.08,4.55-1.08,1.55,0,2.88,.23,3.99,.69,1.11,.46,1.97,1.06,2.57,1.8,.6,.74,1.02,1.5,1.24,2.29,.22,.79,.33,1.98,.33,3.59Zm-6.9-1.71c0-1.16-.06-1.89-.19-2.2-.13-.3-.39-.45-.8-.45s-.68,.15-.82,.45-.21,1.03-.21,2.2v10.24c0,1.07,.07,1.77,.21,2.09,.14,.32,.4,.49,.8,.49s.68-.15,.81-.45c.13-.3,.2-.93,.2-1.91v-10.46Z" style="fill:red;"/><path d="M43.46,69.02l-.12,2.09c.5-.83,1.11-1.46,1.84-1.87,.72-.42,1.56-.62,2.5-.62,1.18,0,2.15,.28,2.91,.84,.75,.56,1.24,1.26,1.45,2.11,.22,.85,.32,2.26,.32,4.25v15.89h-6.9v-15.71c0-1.56-.05-2.51-.15-2.85s-.39-.51-.85-.51c-.49,0-.8,.2-.92,.59-.13,.39-.19,1.44-.19,3.15v15.33h-6.9v-22.68h7.02Z" style="fill:red;"/><path d="M61.76,69.02l-.12,2.09c.5-.83,1.11-1.46,1.84-1.87,.72-.42,1.56-.62,2.5-.62,1.19,0,2.15,.28,2.91,.84,.75,.56,1.24,1.26,1.45,2.11,.21,.85,.32,2.26,.32,4.25v15.89h-6.9v-15.71c0-1.56-.05-2.51-.15-2.85-.1-.34-.39-.51-.85-.51-.49,0-.8,.2-.92,.59-.12,.39-.19,1.44-.19,3.15v15.33h-6.9v-22.68h7.02Z" style="fill:red;"/><path d="M88.68,80.76h-8.94v4.9c0,1.03,.07,1.69,.22,1.98,.15,.3,.43,.45,.85,.45,.52,0,.88-.2,1.05-.59,.18-.39,.26-1.15,.26-2.28v-2.99h6.54v1.67c0,1.4-.09,2.48-.26,3.23s-.59,1.55-1.24,2.41c-.65,.85-1.47,1.5-2.47,1.92-1,.43-2.25,.64-3.75,.64s-2.75-.21-3.86-.63c-1.12-.42-1.99-1-2.61-1.73-.62-.73-1.05-1.54-1.29-2.43-.24-.88-.36-2.17-.36-3.85v-6.61c0-1.98,.27-3.55,.8-4.69,.54-1.15,1.41-2.02,2.63-2.63,1.22-.61,2.62-.91,4.2-.91,1.94,0,3.54,.37,4.79,1.1,1.26,.74,2.14,1.71,2.65,2.92,.51,1.21,.76,2.92,.76,5.12v3.01Zm-6.92-3.69v-1.66c0-1.17-.06-1.93-.19-2.27-.12-.34-.38-.51-.77-.51-.48,0-.78,.15-.89,.44-.11,.29-.17,1.07-.17,2.35v1.66h2.02Z" style="fill:red;"/><path d="M106.2,77.58h-6.51v-2.61c0-.91-.07-1.53-.22-1.85-.15-.33-.42-.49-.82-.49s-.67,.14-.8,.43-.21,.92-.21,1.91v10.7c0,.81,.1,1.42,.31,1.82,.21,.41,.51,.61,.91,.61,.47,0,.78-.21,.95-.63,.17-.42,.25-1.22,.25-2.39v-2.7h6.15c-.01,1.81-.08,3.17-.2,4.08-.12,.91-.5,1.83-1.14,2.79-.64,.95-1.48,1.67-2.52,2.15-1.04,.48-2.32,.73-3.84,.73-1.95,0-3.49-.33-4.63-1-1.14-.67-1.95-1.6-2.42-2.8-.47-1.2-.71-2.91-.71-5.12v-6.44c0-1.93,.19-3.38,.58-4.36,.39-.98,1.21-1.85,2.48-2.62,1.27-.77,2.8-1.15,4.62-1.15s3.34,.38,4.61,1.14c1.28,.76,2.12,1.73,2.55,2.89,.42,1.16,.63,2.81,.63,4.94Z" style="fill:red;"/><path d="M115.53,66v3.57h1.86v3.59h-1.86v12.13c0,1.49,.08,2.32,.23,2.49,.15,.17,.79,.26,1.92,.26v3.66h-2.79c-1.57,0-2.7-.07-3.37-.2-.67-.13-1.26-.43-1.78-.91-.51-.47-.83-1.01-.96-1.62-.13-.61-.19-2.04-.19-4.3v-11.52h-1.49v-3.59h1.49v-3.57h6.92Z" style="fill:red;"/></g><rect x=".29" y="57.89" width="118" height="6"/></svg>